<?xml version="1.0" ?><!DOCTYPE svg  PUBLIC '-//W3C//DTD SVG 1.1//EN'  'http://www.w3.org/Graphics/SVG/1.1/DTD/svg11.dtd'><svg height="2048px" style="shape-rendering:geometricPrecision; text-rendering:geometricPrecision; image-rendering:optimizeQuality; fill-rule:evenodd; clip-rule:evenodd" viewBox="0 0 2048 2048" width="2048px" xml:space="preserve" xmlns="http://www.w3.org/2000/svg" xmlns:xlink="http://www.w3.org/1999/xlink"><defs><style type="text/css">
   <![CDATA[
    .fil3 {fill:none}
    .fil1 {fill:#FF6E86}
    .fil2 {fill:#FFFFFE}
    .fil0 {fill:#333333;fill-rule:nonzero}
   ]]>
  </style></defs><g id="Layer_x0020_1"><path class="fil0" d="M1347.56 1245.61c2.97402,39.5859 -10.3642,77.3552 -34.3524,106.453 -23.9906,29.1 -58.6371,49.552 -98.2725,54.4996 -2.22992,0.277559 -4.62402,0.51378 -7.16812,0.705119 -37.1859,2.80512 -71.8619,-8.8382 -98.4343,-30.417 -26.5996,-21.6 -45,-53.1059 -49.6052,-89.9859 -0.26811,-2.15551 -0.500788,-4.50237 -0.690945,-7.03583 -3.02244,-39.5185 10.3417,-77.3079 34.3536,-106.428 24.0166,-29.1236 58.6914,-49.604 98.2772,-54.4973 12.2102,-1.52599 24.3425,-1.45158 36.1866,0.0720473 4.29922,0.552756 8.54292,1.30276 12.7205,2.24173l0 -306.415 -300.505 55.9276c-0.0177165,32.5666 -0.0850394,101.637 -0.152362,205.586 -0.0153543,24.587 -0.0318898,49.1126 -0.0318898,218.192 2.76614,39.2233 -10.5307,76.6253 -34.3181,105.503 -23.9835,29.1154 -58.643,49.5839 -98.2501,54.5292 -2.11772,0.261024 -4.41142,0.486615 -6.86575,0.67441 -37.3406,2.85827 -72.117,-8.81103 -98.7438,-30.4488 -26.6622,-21.6662 -45.0685,-53.263 -49.6311,-90.2257 -0.251575,-2.04567 -0.473622,-4.28977 -0.659056,-6.7252 -3.07205,-39.5599 10.2366,-77.3493 34.2272,-106.468 23.987,-29.1142 58.6583,-49.5709 98.3056,-54.4642 12.2209,-1.52126 24.3484,-1.42677 36.1725,0.113386 4.29922,0.559843 8.54056,1.31457 12.7146,2.25827l0 -478.379 0 -13.4764 13.3134 -2.27362 481.981 -82.2721 -0.00236221 -0.011811 0.459449 -0.0921261 19.1256 -3.83386 0 19.5213 0 2.08229 -0.0625985 0 -0.641339 631.114 0.145276 0.884646 0.00944883 -0.0011811c0.19252,1.20236 0.323622,2.2252 0.389764,3.09213l0.00472441 0zm-58.976 86.204c18.9177,-22.9465 29.4402,-52.6937 27.1004,-83.83l0 -0.0625985c-0.0259843,-0.360236 -0.00590552,-0.318898 -0.0188977,-0.402756l0 -0.0625985c-0.0413386,-0.263386 -0.0188977,0.0437008 -0.155906,-0.543308l-0.375591 -3.62481 0.625985 -615.904 -450.922 76.9701 0 486.606 0 23.7827 -22.063 -9.03308c-8.44607,-3.45827 -17.426,-5.87008 -26.7768,-7.0878 -8.95158,-1.16575 -18.3886,-1.20591 -28.174,0.011811 -31.2815,3.85985 -58.6359,19.9984 -77.556,42.9626 -18.9047,22.9453 -29.3941,52.7067 -26.9752,83.8453 0.120473,1.58032 0.3,3.32835 0.533859,5.2252 3.51733,28.4965 17.6114,52.7788 38.0044,69.3508 20.4284,16.6004 47.2713,25.539 76.2461,23.3221 1.60394,-0.122835 3.39213,-0.305906 5.36575,-0.549213 31.2331,-3.9 58.5745,-20.0516 77.5005,-43.0276 18.8894,-22.9299 29.3906,-52.6571 27.0036,-83.7721l-0.0625985 -1.18701c0,-23.9103 0.0791339,-97.2946 0.157087,-218.488 0.0153543,-24.6213 0.0318898,-49.3122 0.0318898,-218.831l0 -13.2437 13.1256 -2.4437 332.501 -61.8827 18.8752 -3.5126 0 19.2 0 347.28 0 23.7461 -22.0004 -8.99646c-8.42009,-3.44292 -17.3823,-5.82993 -26.7201,-7.03111 -8.98465,-1.1563 -18.4677,-1.17638 -28.3134,0.0531496 -31.2248,3.85985 -58.5804,20.0185 -77.5276,42.9957 -18.9354,22.9642 -29.478,52.7244 -27.1016,83.8052 0.127559,1.69134 0.317717,3.54213 0.565748,5.53583 3.54567,28.3961 17.6315,52.5886 37.9784,69.1111 20.3752,16.5461 47.1189,25.4634 75.9367,23.2902 1.71142,-0.12874 3.60236,-0.322441 5.66811,-0.579922 31.2638,-3.90237 58.5957,-20.0398 77.5229,-42.9981z"/><path class="fil0" d="M1024 304.001c-198.832,0 -378.834,80.5843 -509.124,210.875 -130.291,130.29 -210.875,310.292 -210.875,509.124 0,198.832 80.5843,378.834 210.875,509.124 130.29,130.291 310.292,210.875 509.124,210.875 198.832,0 378.834,-80.5843 509.124,-210.875 130.291,-130.29 210.875,-310.292 210.875,-509.124 0,-198.832 -80.5843,-378.834 -210.875,-509.124 -130.29,-130.291 -310.292,-210.875 -509.124,-210.875zm-531.749 188.25c136.082,-136.083 324.084,-220.251 531.749,-220.251 207.665,0 395.667,84.1678 531.749,220.251 136.083,136.082 220.251,324.084 220.251,531.749 0,207.665 -84.1678,395.667 -220.251,531.749 -136.082,136.083 -324.084,220.251 -531.749,220.251 -207.665,0 -395.667,-84.1678 -531.749,-220.251 -136.083,-136.082 -220.251,-324.084 -220.251,-531.749 0,-207.665 84.1678,-395.667 220.251,-531.749z"/><path class="fil1" d="M1024 304.001c-198.832,0 -378.834,80.5843 -509.124,210.875 -130.291,130.29 -210.875,310.292 -210.875,509.124 0,198.832 80.5843,378.834 210.875,509.124 130.29,130.291 310.292,210.875 509.124,210.875 198.832,0 378.834,-80.5843 509.124,-210.875 130.291,-130.29 210.875,-310.292 210.875,-509.124 0,-198.832 -80.5843,-378.834 -210.875,-509.124 -130.29,-130.291 -310.292,-210.875 -509.124,-210.875zm304.131 288.849l0 0zm19.024 649.665l0 0zm0.399213 3.09095l0 0zm-501.404 -570.484l481.979 -82.2839 0.459449 -0.0921261 19.1256 -3.83386 0 19.5213 0 2.08229 -0.0625985 0 -0.641339 631.114 0.154725 0.883465c0.19252,1.20236 0.323622,2.2252 0.394488,3.09213 2.97402,39.5859 -10.3642,77.3552 -34.3524,106.453 -23.9906,29.1 -58.6371,49.552 -98.2725,54.4996 -2.22992,0.277559 -4.62402,0.51378 -7.16812,0.705119 -37.1859,2.80512 -71.8619,-8.8382 -98.4343,-30.417 -26.5996,-21.6 -45,-53.1059 -49.6052,-89.9859 -0.26811,-2.15551 -0.500788,-4.50237 -0.690945,-7.03583 -3.02244,-39.5185 10.3417,-77.3079 34.3536,-106.428 24.0166,-29.1236 58.6914,-49.604 98.2772,-54.4973 12.2102,-1.52599 24.3425,-1.45158 36.1866,0.0720473 4.29922,0.552756 8.54292,1.30276 12.7205,2.24173l0 -306.415 -300.505 55.9276 -0.152362 205.586c-0.0153543,24.587 -0.0318898,49.1126 -0.0318898,218.192 2.76614,39.2233 -10.5307,76.6253 -34.3181,105.503 -23.9835,29.1154 -58.643,49.5839 -98.2501,54.5292 -2.11772,0.261024 -4.41142,0.486615 -6.86575,0.67441 -37.3406,2.85827 -72.117,-8.81103 -98.7438,-30.4488 -26.6622,-21.6662 -45.0685,-53.263 -49.6311,-90.2257 -0.251575,-2.04567 -0.473622,-4.28977 -0.659056,-6.7252 -3.07205,-39.5599 10.2366,-77.3493 34.2272,-106.468 23.987,-29.1142 58.6583,-49.5709 98.3056,-54.4642 12.2209,-1.52126 24.3484,-1.42677 36.1725,0.113386 4.29922,0.559843 8.54056,1.31457 12.7146,2.25827l0 -478.379 0 -13.4764 13.3134 -2.27362z"/><path class="fil2" d="M1315.76 627.38l-450.922 76.9701 0 486.606 0 23.7827 -22.063 -9.03308c-8.44607,-3.45827 -17.426,-5.87008 -26.7768,-7.0878 -8.95158,-1.16575 -18.3886,-1.20591 -28.174,0.011811 -31.2815,3.85985 -58.6359,19.9984 -77.556,42.9626 -18.9047,22.9453 -29.3941,52.7067 -26.9752,83.8453 0.120473,1.58032 0.3,3.32835 0.533859,5.2252 3.51733,28.4965 17.6114,52.7788 38.0044,69.3508 20.4284,16.6004 47.2713,25.539 76.2461,23.3221 1.60394,-0.122835 3.39213,-0.305906 5.36575,-0.549213 31.2331,-3.9 58.5745,-20.0516 77.5005,-43.0276 18.8894,-22.9299 29.3906,-52.6571 27.0036,-83.7721l-0.0625985 -1.18701c0,-23.9103 0.0791339,-97.2946 0.157087,-218.488 0.0153543,-24.6213 0.0318898,-49.3122 0.0318898,-218.831l0 -13.2437 13.1256 -2.4437 332.501 -61.8827 18.8752 -3.5126 0 19.2 0 347.28 0 23.7461 -22.0004 -8.99646c-8.42009,-3.44292 -17.3823,-5.82993 -26.7201,-7.03111 -8.98465,-1.1563 -18.4677,-1.17638 -28.3134,0.0531496 -31.2248,3.85985 -58.5804,20.0185 -77.5276,42.9957 -18.9354,22.9642 -29.478,52.7244 -27.1016,83.8052 0.127559,1.69134 0.317717,3.54213 0.565748,5.53583 3.54567,28.3961 17.6315,52.5886 37.9784,69.1111 20.3752,16.5461 47.1189,25.4634 75.9367,23.2902 1.71142,-0.12874 3.60236,-0.322441 5.66811,-0.579922 31.2638,-3.90237 58.5957,-20.0398 77.5229,-42.9981 18.9177,-22.9465 29.4402,-52.6937 27.1004,-83.83l0 -0.0625985c-0.0259843,-0.360236 -0.00590552,-0.318898 -0.0188977,-0.402756l0 -0.0625985c-0.0413386,-0.263386 -0.0188977,0.0437008 -0.155906,-0.543308l-0.375591 -3.62481 0.625985 -615.904z"/></g><rect class="fil3" height="2048" width="2048"/></svg>