<?xml version="1.0" ?><svg id="Icon_Set" style="enable-background:new 0 0 64 64;" version="1.1" viewBox="0 0 64 64" xml:space="preserve" xmlns="http://www.w3.org/2000/svg" xmlns:xlink="http://www.w3.org/1999/xlink"><style type="text/css">
	.st0{fill:#263238;}
	.st1{fill:#4FC3F7;}
	.st2{fill:#FFFFFF;}
	.st3{fill:#FF5592;}
	.st4{fill:#FF5252;}
	.st5{fill:#FFD740;}
	.st6{fill-rule:evenodd;clip-rule:evenodd;fill:#4DB6AC;}
	.st7{fill-rule:evenodd;clip-rule:evenodd;fill:#4FC3F7;}
	.st8{fill-rule:evenodd;clip-rule:evenodd;fill:#FFFFFF;}
	.st9{fill:#4DB6AC;}
	.st10{fill:#6F67D6;}
	.st11{fill:#FF7155;}
	.st12{fill:#445056;}
	.st13{fill:#08141A;}
</style><g><g><circle class="st9" cx="32" cy="32" r="17"/></g><g><path class="st0" d="M32,49.5c-9.649,0-17.5-7.851-17.5-17.5S22.351,14.5,32,14.5S49.5,22.351,49.5,32S41.649,49.5,32,49.5z     M32,15.5c-9.098,0-16.5,7.402-16.5,16.5S22.902,48.5,32,48.5S48.5,41.098,48.5,32S41.098,15.5,32,15.5z"/></g><g><path class="st0" d="M52,56.5H12c-2.481,0-4.5-2.019-4.5-4.5V16c0-0.276,0.224-0.5,0.5-0.5s0.5,0.224,0.5,0.5v36    c0,1.93,1.57,3.5,3.5,3.5h40c1.93,0,3.5-1.57,3.5-3.5v-2c0-0.276,0.224-0.5,0.5-0.5s0.5,0.224,0.5,0.5v2    C56.5,54.481,54.481,56.5,52,56.5z"/></g><g><path class="st0" d="M56,48.5c-0.276,0-0.5-0.224-0.5-0.5V12c0-1.93-1.57-3.5-3.5-3.5H12c-1.93,0-3.5,1.57-3.5,3.5v2    c0,0.276-0.224,0.5-0.5,0.5S7.5,14.276,7.5,14v-2c0-2.481,2.019-4.5,4.5-4.5h40c2.481,0,4.5,2.019,4.5,4.5v36    C56.5,48.276,56.276,48.5,56,48.5z"/></g><g><path class="st2" d="M38.848,41.221c-0.091-0.025-0.182-0.058-0.271-0.102l-1.25-0.61c-4.464-2.177-9.24-3.457-14.196-3.803    l-1.387-0.097c-0.831-0.055-1.45-0.775-1.392-1.6c0.058-0.827,0.774-1.45,1.6-1.392l1.387,0.097    c5.343,0.373,10.491,1.753,15.303,4.1l1.25,0.611c0.744,0.363,1.053,1.261,0.69,2.006C40.263,41.085,39.528,41.403,38.848,41.221z    "/></g><g><path class="st2" d="M41.088,36.726c-0.094-0.025-0.187-0.06-0.278-0.105l-1.97-0.974c-4.579-2.264-9.487-3.579-14.587-3.908    l-2.193-0.141c-0.834-0.054-1.454-0.767-1.401-1.593c0.053-0.827,0.767-1.454,1.593-1.401l2.193,0.141    c5.498,0.355,10.788,1.773,15.723,4.213l1.971,0.974c0.742,0.367,1.047,1.267,0.679,2.009    C42.497,36.593,41.765,36.908,41.088,36.726z"/></g><g><path class="st2" d="M43.327,32.232c-0.096-0.026-0.191-0.062-0.284-0.108l-2.724-1.362c-4.673-2.336-9.688-3.681-14.904-3.994    l-3.041-0.183c-0.827-0.051-1.457-0.76-1.408-1.587c0.05-0.827,0.761-1.457,1.587-1.408l3.041,0.183    c5.624,0.338,11.028,1.787,16.067,4.305l2.724,1.362c0.741,0.37,1.041,1.271,0.671,2.013    C44.732,32.101,44.002,32.412,43.327,32.232z"/></g><g><path class="st0" d="M39.233,41.772c-0.17,0-0.343-0.022-0.514-0.068c0,0,0,0,0,0c-0.122-0.032-0.243-0.078-0.361-0.136    l-1.25-0.61c-4.407-2.149-9.121-3.412-14.011-3.753l-1.388-0.097c-0.531-0.036-1.017-0.276-1.368-0.678    c-0.352-0.403-0.525-0.921-0.488-1.456c0.078-1.1,1.045-1.922,2.134-1.856l1.388,0.097c5.405,0.377,10.615,1.773,15.487,4.149    l1.25,0.611c0.48,0.234,0.84,0.641,1.014,1.146s0.141,1.048-0.094,1.528C40.691,41.348,39.982,41.772,39.233,41.772z     M38.978,40.738c0.458,0.12,0.946-0.1,1.156-0.528c0.117-0.24,0.134-0.511,0.047-0.764c-0.087-0.252-0.267-0.456-0.507-0.573    l-1.25-0.611c-4.755-2.319-9.842-3.682-15.118-4.05l-1.388-0.097c-0.543-0.046-1.029,0.377-1.067,0.928    c-0.019,0.268,0.068,0.527,0.245,0.729c0.174,0.2,0.417,0.32,0.682,0.337l1.389,0.098c5.019,0.35,9.857,1.646,14.38,3.853    l1.25,0.61C38.856,40.699,38.917,40.722,38.978,40.738L38.978,40.738z"/></g><g><path class="st0" d="M41.472,37.277c-0.17,0-0.343-0.022-0.513-0.068c-0.125-0.033-0.249-0.08-0.37-0.139l-1.971-0.975    c-4.52-2.235-9.364-3.533-14.397-3.857l-2.193-0.141c-1.101-0.072-1.938-1.024-1.867-2.125c0.034-0.533,0.274-1.021,0.675-1.374    c0.401-0.354,0.92-0.532,1.449-0.494l2.193,0.141c5.562,0.359,10.916,1.793,15.913,4.264l1.971,0.975    c0.479,0.236,0.837,0.646,1.008,1.152c0.171,0.506,0.135,1.048-0.102,1.527C42.925,36.856,42.218,37.277,41.472,37.277z     M22.154,29.1c-0.243,0-0.474,0.087-0.658,0.249c-0.201,0.176-0.321,0.42-0.338,0.687c-0.036,0.559,0.374,1.026,0.934,1.062    l2.193,0.141c5.166,0.333,10.137,1.666,14.776,3.959l1.97,0.975c0.06,0.029,0.122,0.053,0.185,0.07c0,0,0.001,0,0.001,0    c0.458,0.123,0.943-0.097,1.154-0.523c0.119-0.239,0.137-0.511,0.051-0.764c-0.085-0.253-0.264-0.458-0.503-0.576l-1.971-0.975    c-4.878-2.411-10.104-3.812-15.534-4.162l-2.193-0.141C22.198,29.101,22.176,29.1,22.154,29.1z"/></g><g><path class="st0" d="M43.71,32.782c-0.17,0-0.342-0.022-0.512-0.067h0c-0.127-0.034-0.253-0.082-0.376-0.143l-2.726-1.363    c-4.613-2.307-9.563-3.633-14.711-3.942l-3.041-0.183c-1.1-0.068-1.941-1.018-1.876-2.116c0.032-0.534,0.27-1.023,0.67-1.377    c0.399-0.355,0.907-0.533,1.447-0.5l3.041,0.183c5.689,0.342,11.16,1.808,16.26,4.357l2.724,1.362    c0.478,0.239,0.834,0.649,1.003,1.156s0.13,1.049-0.108,1.527C45.159,32.365,44.453,32.782,43.71,32.782z M43.457,31.749    c0.453,0.122,0.94-0.096,1.152-0.52c0.12-0.239,0.139-0.51,0.054-0.764s-0.263-0.459-0.501-0.578l-2.724-1.362    c-4.979-2.489-10.319-3.919-15.873-4.253l-3.041-0.183C22.251,24.076,22,24.163,21.8,24.34s-0.319,0.421-0.335,0.688    c-0.032,0.549,0.389,1.024,0.939,1.058l3.04,0.183c5.283,0.317,10.363,1.678,15.098,4.045l2.724,1.362    C43.328,31.707,43.392,31.731,43.457,31.749L43.457,31.749z"/></g></g></svg>