<?xml version="1.0" ?><svg id="Icon_Set" style="enable-background:new 0 0 64 64;" version="1.1" viewBox="0 0 64 64" xml:space="preserve" xmlns="http://www.w3.org/2000/svg" xmlns:xlink="http://www.w3.org/1999/xlink"><style type="text/css">
	.st0{fill:#263238;}
	.st1{fill:#4FC3F7;}
	.st2{fill:#FFFFFF;}
	.st3{fill:#FF5592;}
	.st4{fill:#FF5252;}
	.st5{fill:#FFD740;}
	.st6{fill-rule:evenodd;clip-rule:evenodd;fill:#4DB6AC;}
	.st7{fill-rule:evenodd;clip-rule:evenodd;fill:#4FC3F7;}
	.st8{fill-rule:evenodd;clip-rule:evenodd;fill:#FFFFFF;}
	.st9{fill:#4DB6AC;}
	.st10{fill:#6F67D6;}
	.st11{fill:#FF7155;}
	.st12{fill:#445056;}
	.st13{fill:#08141A;}
</style><g><g><path class="st0" d="M52,56.5H12c-2.481,0-4.5-2.019-4.5-4.5V16c0-0.276,0.224-0.5,0.5-0.5s0.5,0.224,0.5,0.5v36    c0,1.93,1.57,3.5,3.5,3.5h40c1.93,0,3.5-1.57,3.5-3.5v-2c0-0.276,0.224-0.5,0.5-0.5s0.5,0.224,0.5,0.5v2    C56.5,54.481,54.481,56.5,52,56.5z"/></g><g><path class="st0" d="M56,48.5c-0.276,0-0.5-0.224-0.5-0.5V12c0-1.93-1.57-3.5-3.5-3.5H12c-1.93,0-3.5,1.57-3.5,3.5v2    c0,0.276-0.224,0.5-0.5,0.5S7.5,14.276,7.5,14v-2c0-2.481,2.019-4.5,4.5-4.5h40c2.481,0,4.5,2.019,4.5,4.5v36    C56.5,48.276,56.276,48.5,56,48.5z"/></g><g><rect class="st11" height="6" width="7" x="13.5" y="38"/></g><g><path class="st0" d="M20.5,44.5h-7c-0.276,0-0.5-0.224-0.5-0.5v-6c0-0.276,0.224-0.5,0.5-0.5h7c0.276,0,0.5,0.224,0.5,0.5v6    C21,44.276,20.776,44.5,20.5,44.5z M14,43.5h6v-5h-6V43.5z"/></g><g><rect class="st11" height="6" width="7" x="23.5" y="38"/></g><g><path class="st0" d="M30.5,44.5h-7c-0.276,0-0.5-0.224-0.5-0.5v-6c0-0.276,0.224-0.5,0.5-0.5h7c0.276,0,0.5,0.224,0.5,0.5v6    C31,44.276,30.776,44.5,30.5,44.5z M24,43.5h6v-5h-6V43.5z"/></g><g><rect class="st5" height="6" width="7" x="23.5" y="32"/></g><g><path class="st0" d="M30.5,38.5h-7c-0.276,0-0.5-0.224-0.5-0.5v-6c0-0.276,0.224-0.5,0.5-0.5h7c0.276,0,0.5,0.224,0.5,0.5v6    C31,38.276,30.776,38.5,30.5,38.5z M24,37.5h6v-5h-6V37.5z"/></g><g><rect class="st10" height="6" width="7" x="33.5" y="38"/></g><g><path class="st0" d="M40.5,44.5h-7c-0.276,0-0.5-0.224-0.5-0.5v-6c0-0.276,0.224-0.5,0.5-0.5h7c0.276,0,0.5,0.224,0.5,0.5v6    C41,44.276,40.776,44.5,40.5,44.5z M34,43.5h6v-5h-6V43.5z"/></g><g><rect class="st10" height="6" width="7" x="33.5" y="32"/></g><g><path class="st0" d="M40.5,38.5h-7c-0.276,0-0.5-0.224-0.5-0.5v-6c0-0.276,0.224-0.5,0.5-0.5h7c0.276,0,0.5,0.224,0.5,0.5v6    C41,38.276,40.776,38.5,40.5,38.5z M34,37.5h6v-5h-6V37.5z"/></g><g><rect class="st1" height="6" width="7" x="43.5" y="38"/></g><g><path class="st0" d="M50.5,44.5h-7c-0.276,0-0.5-0.224-0.5-0.5v-6c0-0.276,0.224-0.5,0.5-0.5h7c0.276,0,0.5,0.224,0.5,0.5v6    C51,44.276,50.776,44.5,50.5,44.5z M44,43.5h6v-5h-6V43.5z"/></g><g><rect class="st1" height="6" width="7" x="43.5" y="32"/></g><g><path class="st0" d="M50.5,38.5h-7c-0.276,0-0.5-0.224-0.5-0.5v-6c0-0.276,0.224-0.5,0.5-0.5h7c0.276,0,0.5,0.224,0.5,0.5v6    C51,38.276,50.776,38.5,50.5,38.5z M44,37.5h6v-5h-6V37.5z"/></g><g><rect class="st9" height="6" width="7" x="43.5" y="26"/></g><g><path class="st0" d="M50.5,32.5h-7c-0.276,0-0.5-0.224-0.5-0.5v-6c0-0.276,0.224-0.5,0.5-0.5h7c0.276,0,0.5,0.224,0.5,0.5v6    C51,32.276,50.776,32.5,50.5,32.5z M44,31.5h6v-5h-6V31.5z"/></g><g><rect class="st9" height="6" width="7" x="43.5" y="20"/></g><g><path class="st0" d="M50.5,26.5h-7c-0.276,0-0.5-0.224-0.5-0.5v-6c0-0.276,0.224-0.5,0.5-0.5h7c0.276,0,0.5,0.224,0.5,0.5v6    C51,26.276,50.776,26.5,50.5,26.5z M44,25.5h6v-5h-6V25.5z"/></g><g><rect class="st5" height="6" width="7" x="23.5" y="26"/></g><g><path class="st0" d="M30.5,32.5h-7c-0.276,0-0.5-0.224-0.5-0.5v-6c0-0.276,0.224-0.5,0.5-0.5h7c0.276,0,0.5,0.224,0.5,0.5v6    C31,32.276,30.776,32.5,30.5,32.5z M24,31.5h6v-5h-6V31.5z"/></g></g></svg>