<?xml version="1.0" ?><!DOCTYPE svg  PUBLIC '-//W3C//DTD SVG 1.1//EN'  'http://www.w3.org/Graphics/SVG/1.1/DTD/svg11.dtd'><svg enable-background="new 0 0 32 32" height="32px" version="1.1" viewBox="0 0 32 32" width="32px" xml:space="preserve" xmlns="http://www.w3.org/2000/svg" xmlns:xlink="http://www.w3.org/1999/xlink"><g id="Youtube_1_"><path d="M30.21,10.03c0,0-0.284-2.058-1.153-2.964c-1.103-1.189-2.339-1.195-2.905-1.264   C22.093,5.5,16.006,5.5,16.006,5.5h-0.012c0,0-6.087,0-10.146,0.302C5.281,5.871,4.045,5.876,2.942,7.066   C2.072,7.972,1.79,10.03,1.79,10.03S1.5,12.446,1.5,14.862v2.266c0,2.416,0.29,4.832,0.29,4.832s0.283,2.058,1.152,2.963   c1.104,1.189,2.553,1.153,3.198,1.277C8.46,26.429,16,26.5,16,26.5s6.093-0.009,10.152-0.312c0.566-0.07,1.803-0.076,2.905-1.266   c0.87-0.905,1.153-2.963,1.153-2.963s0.29-2.416,0.29-4.832v-2.266C30.5,12.446,30.21,10.03,30.21,10.03z" fill="#FFFFFF" id="Youtube_6_"/><path d="M29.755,8.282c-1.019-0.897-2.088-0.917-2.604-0.98C23.093,7,17.006,7,17.006,7h-0.012   c0,0-6.087,0-10.146,0.302C6.281,7.371,5.045,7.376,3.942,8.566C3.072,9.472,2.79,11.53,2.79,11.53S2.5,13.946,2.5,16.362v2.266   c0,2.416,0.29,4.832,0.29,4.832s0.124,0.875,0.449,1.734C4.293,26.096,5.55,26.086,6.14,26.2C8.46,26.429,16,26.5,16,26.5   s6.093-0.009,10.152-0.312c0.566-0.07,1.803-0.076,2.905-1.266c0.87-0.905,1.153-2.963,1.153-2.963s0.29-2.416,0.29-4.832v-2.266   c0-2.416-0.29-4.833-0.29-4.833S30.084,9.147,29.755,8.282z" fill="#FF8A80"/><path d="M16,27c-0.001,0-0.003,0-0.005,0c-0.309-0.003-7.588-0.074-9.904-0.302   c-0.146-0.026-0.269-0.041-0.407-0.058c-0.774-0.096-2.069-0.256-3.109-1.377c-0.965-1.004-1.269-3.144-1.281-3.235   C1.281,21.919,1,19.545,1,17.128v-2.266c0-2.418,0.281-4.792,0.293-4.892C1.307,9.871,1.61,7.731,2.581,6.72   c1.118-1.205,2.363-1.329,3.032-1.396l0.175-0.019C9.841,5.003,15.933,5,15.994,5c0.073,0,6.165,0.003,10.195,0.303l0.198,0.021   c0.669,0.066,1.914,0.19,3.037,1.402c0.965,1.005,1.27,3.145,1.282,3.235C30.719,10.07,31,12.444,31,14.862v2.266   c0,2.418-0.281,4.792-0.293,4.892c-0.014,0.099-0.318,2.239-1.29,3.25c-1.116,1.205-2.36,1.33-3.029,1.397l-0.176,0.019   C22.159,26.988,16.062,27,16,27z M16.006,6C15.934,6,9.878,6.003,5.885,6.3L5.712,6.319C5.137,6.376,4.175,6.472,3.309,7.406   C2.682,8.06,2.357,9.57,2.285,10.098C2.283,10.113,2,12.506,2,14.862v2.266c0,2.358,0.283,4.749,0.286,4.772   c0.072,0.52,0.398,2.032,1.016,2.676c0.797,0.859,1.784,0.981,2.505,1.071c0.164,0.021,0.309,0.039,0.428,0.062   c2.21,0.216,9.591,0.289,9.767,0.291c0.16,0,6.153-0.015,10.113-0.31l0.174-0.019c0.575-0.058,1.537-0.154,2.402-1.088   c0.627-0.653,0.952-2.164,1.025-2.691C29.717,21.876,30,19.484,30,17.128v-2.266c0-2.356-0.283-4.749-0.286-4.773   c-0.072-0.52-0.399-2.032-1.018-2.677c-0.871-0.94-1.833-1.036-2.408-1.093l-0.197-0.021C22.122,6.003,16.066,6,16.006,6z" fill="#455A64"/><polygon fill="#FFFFFF" points="12.5,19.5 12.5,11.5 21.5,15.5  "/><path d="M12.5,20c-0.095,0-0.19-0.027-0.272-0.081C12.085,19.827,12,19.669,12,19.5v-5.969   c0-0.276,0.224-0.5,0.5-0.5s0.5,0.224,0.5,0.5v5.199l7.269-3.23l-7.972-3.543c-0.252-0.112-0.366-0.408-0.254-0.66   c0.112-0.252,0.408-0.366,0.66-0.254l9,4C21.884,15.124,22,15.302,22,15.5s-0.116,0.376-0.297,0.457l-9,4   C12.638,19.986,12.569,20,12.5,20z" fill="#455A64"/></g></svg>